<?xml version="1.0" standalone="no"?>
<!DOCTYPE svg PUBLIC "-//W3C//DTD SVG 20010904//EN"
 "http://www.w3.org/TR/2001/REC-SVG-20010904/DTD/svg10.dtd">
<svg version="1.0" xmlns="http://www.w3.org/2000/svg"
 width="673.000000pt" height="674.000000pt" viewBox="0 0 673.000000 674.000000"
 preserveAspectRatio="xMidYMid meet">

<g transform="translate(0.000000,674.000000) scale(0.100000,-0.100000)"
fill="#000000" stroke="none">
<path d="M3336 6701 c-3 -5 -11 -44 -17 -88 -46 -337 -105 -516 -215 -656 -85
-109 -202 -179 -444 -267 -383 -138 -698 -331 -955 -584 -282 -279 -489 -615
-615 -1001 -71 -217 -189 -389 -346 -505 -58 -42 -185 -103 -279 -134 -80 -26
-272 -68 -373 -81 -41 -5 -52 -11 -50 -23 2 -13 31 -20 136 -34 397 -51 641
-206 781 -494 22 -44 61 -143 87 -220 78 -230 149 -389 250 -556 174 -288 408
-538 674 -720 199 -137 343 -207 634 -307 205 -71 286 -109 371 -175 179 -137
277 -340 335 -691 12 -72 24 -133 27 -137 8 -15 42 -8 47 10 2 9 10 51 16 92
48 309 152 546 304 688 115 107 204 154 456 240 186 64 310 115 400 165 227
127 450 307 611 493 236 275 353 486 499 909 29 83 68 183 88 223 80 161 207
289 366 366 123 60 198 81 373 107 153 22 193 32 193 48 0 16 -29 21 -288 46
-439 42 -436 42 -857 90 -806 92 -1297 194 -1600 334 -198 92 -348 242 -434
434 -54 121 -107 294 -126 415 -7 43 -28 63 -45 46 -5 -5 -23 -72 -40 -149
-41 -183 -79 -297 -142 -425 -185 -375 -531 -625 -1033 -746 -79 -19 -151 -37
-160 -40 -33 -13 -6 -28 86 -46 129 -27 341 -98 463 -157 434 -211 675 -544
791 -1095 14 -66 27 -121 28 -122 1 -1 10 -4 21 -6 16 -3 21 9 36 82 107 522
361 906 715 1080 157 77 292 98 426 66 193 -45 312 -230 280 -435 -31 -201
-183 -451 -415 -685 -434 -438 -1108 -730 -1620 -702 -459 25 -812 220 -1058
584 -206 305 -287 739 -222 1182 78 525 391 1105 823 1525 373 362 784 587
1261 690 169 37 410 46 562 20 187 -31 360 -98 519 -200 90 -58 252 -215 323
-314 56 -79 165 -282 218 -408 23 -56 30 -63 64 -72 48 -13 304 -35 311 -27
14 13 -35 97 -211 366 -322 493 -732 805 -1301 990 -71 24 -158 55 -191 70
-210 94 -348 265 -417 515 -19 68 -53 245 -62 320 -13 107 -15 115 -35 115
-10 0 -21 -4 -24 -9z"/>
</g>
</svg>
